<svg xmlns="http://www.w3.org/2000/svg" version="1" viewBox="0 0 900 900" width="450" height="450">
  <path d="M138 304.8v169l15.2.5c8.3.4 18 .7 21.8.7h6.7l1.2-16.3c2.6-39.4 3.2-45.3 5-54.5 1-5.3 3.4-15.8 5.4-23.2 8-30.2 9.7-39.5 10.7-58 2.3-38 2.3-41.5.5-55-1.8-13-1.8-13.2.4-27.8 2-13.3 2.6-21 4.6-50l.7-9 12.2-6.2c6.7-3.3 13.3-7.3 14.6-8.8 2.4-2.6 2.5-3 2.2-16.5L239 136H138v168.8zM303 149c0 9.3-.3 13-1.2 13.3-2 .6-1.3 1 11.2 5.6l11.7 4.4 1.3 14c.6 7.8 2.4 23 4 33.6 2 13.6 3.2 24.6 3.5 36.5 2 77.3 2.2 82.5 5 92 1.4 5 3.2 13.7 4 19.5 2.4 18 8.5 90.4 8.5 101v5h47V136h-95v13zM474 305v169h74.5l.3-23.8c.3-27 1.4-40 4.7-55.8 1.3-6 2.8-17 3.4-24.5.5-7.4 1.7-17 2.6-21 1.8-8.4 3-41.5 4-100 .2-20 1-42 2-50 .7-8 1.4-17.4 1.4-20.7v-6l10.8-4c6-2.4 14.6-5.6 19.4-7.4 8-3 11.7-5 9-5-.8 0-1.2-3.6-1.2-10v-10H474v169zM673 150v13.8l9.3 5.2 9.3 5.3 1.4 16c1 9.2 1.5 28.2 1.6 43.7 0 16.6.5 30.4 1.2 35 .7 4 2 15.4 2.7 25.4 1 10 2.2 22.4 3 27.6 1 5.2 2.7 18.7 4 30 1.3 11.3 3 23.4 3.4 27 5.4 35.4 7 50.2 7 70.4 0 6.6.5 14.8 1 18.3l1.2 6.3H758V136h-85v14z"/>
</svg>
